<svg xmlns="http://www.w3.org/2000/svg" version="1.1" xmlns:xlink="http://www.w3.org/1999/xlink" xmlns:svgjs="http://svgjs.dev/svgjs" width="74" height="78"><svg width="74" height="78" viewBox="0 0 74 78" fill="none" xmlns="http://www.w3.org/2000/svg">
<path d="M66.3273 7.0924C56.8707 -2.36413 41.5386 -2.36413 32.0821 7.0924L7.09241 32.0821C2.42982 36.7447 0.0661407 42.8356 0.00137166 48.9464H1.86853e-06L3.17144e-06 52.8106H0.00136558C-0.065154 59.0935 2.29853 65.3973 7.0924 70.1911C16.5489 79.6477 31.881 79.6477 41.3375 70.1911L66.3272 45.2014C70.9897 40.539 73.3534 34.4483 73.4183 28.3377H73.4209V24.4735H73.4183C73.485 18.1905 71.1213 11.8864 66.3273 7.0924Z" fill="#FF395C"></path>
<path d="M49.0044 41.2364C44.7389 45.502 37.2995 45.502 33.0339 41.2364L30.3722 38.5747L25.0487 43.8982L27.7104 46.5599C31.2607 50.1139 35.9893 52.0754 41.0192 52.0754C46.049 52.0754 50.7777 50.114 54.3279 46.5599L62.317 38.5747C65.8398 35.0405 67.8179 30.254 67.8179 25.264C67.8179 20.274 65.8398 15.4875 62.317 11.9534C60.5706 10.2045 58.4958 8.81788 56.2118 7.87329C53.9279 6.9287 51.4798 6.44472 49.0082 6.44916C46.536 6.44401 44.0871 6.92766 41.8025 7.87228C39.5178 8.81689 37.4424 10.2039 35.6957 11.9534L30.4071 17.242C33.7336 16.7983 37.132 17.0208 40.3865 17.9096L41.0192 17.2769C43.1408 15.1648 46.0126 13.979 49.0063 13.979C52 13.979 54.8719 15.1648 56.9935 17.2769C59.1074 19.3975 60.2945 22.2697 60.2945 25.264C60.2945 28.2583 59.1074 31.1305 56.9935 33.2512L49.0044 41.2364Z" fill="white"></path>
<path d="M24.6281 33.6713C28.8937 29.4057 36.333 29.4057 40.5986 33.6713L43.2603 36.333L48.5838 31.0095L45.9221 28.3478C42.3718 24.7937 37.6432 22.8323 32.6133 22.8322C27.5835 22.8322 22.8548 24.7937 19.3046 28.3478L11.3156 36.333C7.79276 39.8671 5.81462 44.6536 5.81462 49.6437C5.81462 54.6337 7.79275 59.4202 11.3155 62.9543C13.062 64.7032 15.1368 66.0898 17.4207 67.0344C19.7047 67.979 22.1527 68.463 24.6243 68.4585C27.0965 68.4637 29.5454 67.98 31.8301 67.0354C34.1147 66.0908 36.1901 64.7038 37.9368 62.9543L43.2255 57.6657C39.8989 58.1094 36.5005 57.8868 33.246 56.9981L32.6133 57.6308C30.4917 59.7429 27.6199 60.9287 24.6262 60.9287C21.6325 60.9287 18.7607 59.7429 16.6391 57.6308C14.5251 55.5102 13.3381 52.638 13.3381 49.6437C13.3381 46.6493 14.5251 43.7772 16.6391 41.6565L24.6281 33.6713Z" fill="white"></path>
</svg><style>@media (prefers-color-scheme: light) { :root { filter: none; } }
@media (prefers-color-scheme: dark) { :root { filter: none; } }
</style></svg>